# xmcd
#
# Track frame offsets: 
#        150
#        11336
#        35531
#        48226
#        63463
#        79386
#        89861
#        105461
#        122958
#        142056
#        154206
#        171368
#        186815
#        203858
#        225510
#        245395
#        263620
#        279663
#        301063
#        316040
#
# Disc length: 4448 seconds
#
# Revision: 0
# Processed by: cddbd v1.4PL0 Copyright (c) Steve Scherf et al.
# Submitted via: ExactAudioCopy v0.90b4
#
DISCID=14115e14
DTITLE=ZZ Top - First Album [1971] and Recycler [1990]
DYEAR=1900
DGENRE=
TTITLE0=(Somebody Else Been) Shaking Your Tree
TTITLE1=Brown Sugar
TTITLE2=Squank
TTITLE3=Goin' Down To Mexico
TTITLE4=Old Man
TTITLE5=Neighbor, Neighbor
TTITLE6=Certified Blues
TTITLE7=Bedroom Thang
TTITLE8=Just Got Back From Baby's
TTITLE9=Backdoor Love Affair
TTITLE10=Concrete And Steel
TTITLE11=Lovething
TTITLE12=Penthouse Eyes
TTITLE13=Tell It
TTITLE14=My Head's In Mississippi
TTITLE15=Decision Or Collision
TTITLE16=Give It Up
TTITLE17=2000 Blues
TTITLE18=Burger Man
TTITLE19=Doubleback
EXTD=
EXTT0=
EXTT1=
EXTT2=
EXTT3=
EXTT4=
EXTT5=
EXTT6=
EXTT7=
EXTT8=
EXTT9=
EXTT10=
EXTT11=
EXTT12=
EXTT13=
EXTT14=
EXTT15=
EXTT16=
EXTT17=
EXTT18=
EXTT19=
PLAYORDER=
